<mxfile host="Electron" modified="2024-03-04T20:29:57.372Z" agent="Mozilla/5.0 (X11; Linux x86_64) AppleWebKit/537.36 (KHTML, like Gecko) draw.io/23.1.5 Chrome/120.0.6099.109 Electron/28.1.0 Safari/537.36" etag="_I1zmk_zWSIYuULilJMG" version="23.1.5" type="device">
  <diagram name="PÃ¡gina-1" id="NtOd-6tGiLYqUvQAMJOI">
    <mxGraphModel dx="880" dy="526" grid="1" gridSize="10" guides="1" tooltips="1" connect="1" arrows="1" fold="1" page="1" pageScale="1" pageWidth="827" pageHeight="1169" math="0" shadow="0">
      <root>
        <mxCell id="0" />
        <mxCell id="1" parent="0" />
      </root>
    </mxGraphModel>
  </diagram>
</mxfile>
